<svg width="153" height="50" viewBox="0 0 153 50" fill="none" xmlns="http://www.w3.org/2000/svg">
<g clip-path="url(#clip0)">
<path d="M23.5 28.5V49.6H36V47.3H26.3V39.9H33.7V37.6H26.3V30.9H35.9V28.6H23.5V28.5ZM61.5 28.5L66.7 49.6H69.3L72.1 39.6C72.5 38.1 73 36.2 73.3 34.5C73.5 33.6 73.7 32.6 73.9 31.7H74C74.1 32.7 74.4 33.6 74.6 34.5C74.9 36.1 75.4 38.1 75.8 39.6L77.9 47.2L79.2 43.4C78.9 41.9 78.6 40.2 78.2 38.9L75.3 28.5H73L70 38.9C69.6 40.4 69.2 42.3 68.8 43.9C68.6 44.8 68.4 45.7 68.2 46.6H68.1C68 45.7 67.8 44.7 67.6 43.8C67.3 42.2 66.9 40.2 66.6 38.7L64.2 28.4H61.5V28.5ZM101 47.6C96.4 47.6 95 44.4 95 39.8V37.6C95 33.5 96.7 30.4 100.9 30.4C105.5 30.4 106.9 33.6 106.9 38.2V40.4C107 44.5 105.2 47.6 101 47.6ZM100.9 49.9C106.5 49.9 109.8 46.1 109.8 39.9V38.1C109.8 31.6 106.4 28.1 101 28.1C95.4 28.1 92 31.9 92 38.1V39.9C92.1 46.4 95.4 49.9 100.9 49.9ZM123.2 38.4H119.8V30.8H123.2C126.2 30.8 127.2 31.9 127.2 34.5C127.2 37.2 126.3 38.4 123.2 38.4ZM117.1 28.5V49.6H119.8V40.6H123.5L128.5 49.6H131.6L126.2 40.2V40C128.7 39.1 130.1 37.5 130.1 34.5C130.1 30.5 128 28.5 123.4 28.5H117.1ZM137.8 28.5V49.6H140.5V28.5H137.8ZM141.4 38.8L149.5 49.6H152.7L144.5 38.5L152.3 28.5H149.4L141.4 38.8ZM0 28.5V49.6H2.5V38.4C2.5 37 2.4 35.2 2.4 33.7C2.3 32.9 2.3 32 2.3 31.1H2.4L3.5 33.4C4.2 34.7 5 36.3 5.7 37.6L12.6 49.5H15.4V28.5H12.9V38.6C12.9 40.1 13 42 13 43.5C13 44.4 13.1 45.3 13.1 46.1H13L11.8 43.8C11.1 42.5 10.3 40.9 9.6 39.6L3.2 28.6H0V28.5ZM47.9 30.8V49.5H50.6V30.8H56.7V28.5H41.7V30.8H47.9Z" fill="#87B3C8"/>
<path d="M88.9 31.8L82.6 49.2C82.4 49.8 81.7 50.1 81.1 49.9C80.5 49.7 80.2 49 80.4 48.4L86.6 31L88.9 31.8ZM88 27.2C88.2 26.6 88.9 26.3 89.5 26.5C90.1 26.7 90.4 27.4 90.2 28L89.4 30.2L87.2 29.4L88 27.2Z" fill="black"/>
<path d="M101.6 5C100 3.4 97.7 2.4 95.3 2.4C92.8 2.4 90.6 3.4 89 5C87.4 6.6 86.4 8.9 86.4 11.3C86.4 13.8 87.4 16 89 17.6C90.6 19.2 92.9 20.2 95.3 20.2C97.7 20.2 100 19.2 101.6 17.6C103.2 16 104.2 13.7 104.2 11.3C104.2 8.8 103.2 6.6 101.6 5ZM95.3 0C98.4 0 101.3 1.3 103.3 3.3C105.3 5.3 106.6 8.2 106.6 11.3C106.6 14.4 105.3 17.3 103.3 19.3C101.3 21.3 98.4 22.6 95.3 22.6C92.2 22.6 89.3 21.3 87.3 19.3C85.3 17.3 84 14.4 84 11.3C84 8.2 85.3 5.3 87.3 3.3C89.3 1.3 92.1 0 95.3 0Z" fill="black"/>
<path fill-rule="evenodd" clip-rule="evenodd" d="M98.7 8.09999C97.5 6.89999 95.9 6.19999 94.1 6.19999C93.9 6.19999 93.7 6.19999 93.5 6.19999C93.3 6.19999 93.1 6.19999 92.9 6.29999C92.8 6.29999 92.8 6.29999 92.7 6.19999C92.7 6.09999 92.7 5.99999 92.8 5.99999C93.2 5.79999 93.7 5.59999 94.1 5.49999C94.6 5.39999 95 5.29999 95.5 5.29999C97.1 5.29999 98.6 5.99999 99.6 6.99999C100.7 8.09999 101.3 9.49999 101.3 11.1C101.3 11.5 101.3 12 101.2 12.4C101.1 12.8 101 13.2 100.8 13.6C100.8 13.7 100.7 13.7 100.6 13.7C100.5 13.7 100.4 13.6 100.4 13.5C100.4 13.4 100.4 13.3 100.4 13.2C100.4 13.1 100.4 13 100.4 12.9C100.6 10.9 99.9 9.29999 98.7 8.09999Z" fill="black"/>
<path d="M6.5 11.3H2.7V3.09999H6.5C9.6 3.09999 10.6 4.29999 10.6 7.19999C10.7 9.99999 9.6 11.3 6.5 11.3ZM0 0.799988V21.9H2.7V13.6H7.1C11 13.6 13.5 11.3 13.5 7.09999C13.5 3.09999 11.4 0.799988 6.8 0.799988H0Z" fill="black"/>
<path d="M18 0.799988V21.9H20.7V12.1H30.7V21.9H33.4V0.799988H30.7V9.79999H20.7V0.799988H18Z" fill="black"/>
<path d="M44.7 13.7V21.9H47.4V13.7L54.2 0.799988H51.5L48.3 7.19999C47.8 8.09999 47.3 9.29999 46.9 10.3L46.3 12H46.2L45.5 10.3C45.1 9.29999 44.6 8.09999 44.1 7.19999L40.9 0.799988H38L44.7 13.7Z" fill="black"/>
<path d="M63.3 22.3C68.2 22.3 70.3 19.8 70.3 16.1C70.3 12.6 68.4 11.2 65.3 10.2L63.1 9.5C60.9 8.8 60.2 7.9 60.2 6C60.2 4 61.6 2.9 64 2.9C66.3 2.9 67.9 3.5 69.2 4V1.6C68 1 66.6 0.5 64.1 0.5C59.7 0.5 57.5 2.9 57.5 6.2C57.5 9.5 59.2 11 62 12L64.2 12.7C66.6 13.5 67.5 14.3 67.5 16.4C67.5 18.6 66.2 20 63.1 20C60.9 20 58.9 19.5 57.3 18.7V21C58.8 21.7 60.7 22.3 63.3 22.3Z" fill="black"/>
<path d="M78.6 0.799988H75.9V21.9H78.6V0.799988Z" fill="black"/>
</g>
<defs>
<clipPath id="clip0">
<rect width="152.7" height="50" fill="white"/>
</clipPath>
</defs>
</svg>
